# File created by Blade
# Date/Time:  Wed Jan 21 17:05:50 2015
#---------------------------------------------------------
:version 1.10
:name HOM
:units
  mass 1.0
  length 1.000000
  angle deg
:documentation
     Acclaim Skeleton File
:root
   axis xyz
   order TX TY TZ RX RY RZ
   position 0.000000 0.000000 0.000000
   orientation 0 0 0
:bonedata
   begin
      id 1
      name Spine_dum
      direction 0.000000 1.000000 0.000000
      length 7.067664
      axis 0.0 0.0 0.0 xyz
   end
   begin
      id 2
      name LeftUpLeg_dum
      direction 1.000000 0.000000 0.000000
      length 4.013002
      axis 0.0 0.0 0.0 xyz
   end
   begin
      id 3
      name RightUpLeg_dum
      direction -1.000000 0.000000 0.000000
      length 4.013002
      axis 0.0 0.0 0.0 xyz
   end
   begin
      id 4
      name Spine
      direction 0.000000 1.000000 0.000000
      length 0.000000
      axis 0.0 0.0 0.0 xyz
      dof rx ry rz
   end
   begin
      id 5
      name Spine_dum1
      direction 0.000000 1.000000 0.000000
      length 15.039886
      axis 0.0 0.0 0.0 xyz
   end
   begin
      id 6
      name Spine_dum2
      direction 0.000000 1.000000 0.000000
      length 10.530368
      axis 0.0 0.0 0.0 xyz
   end
   begin
      id 7
      name Spine_dum3
      direction 0.000000 1.000000 0.000000
      length 10.530368
      axis 0.0 0.0 0.0 xyz
   end
   begin
      id 8
      name Head
      direction 0.000000 1.000000 0.000000
      length 4.527550
      axis 0.0 0.0 0.0 xyz
      dof rx ry rz
   end
   begin
      id 9
      name LeftShoulder
      direction 1.000000 0.000000 0.000000
      length 7.028855
      axis 0.0 0.0 -90.0 xyz
      dof rx ry rz
   end
   begin
      id 10
      name LeftArm
      direction 1.000000 0.000000 0.000000
      length 10.797705
      axis 0.0 0.0 -90.0 xyz
      dof rx ry rz
   end
   begin
      id 11
      name LeftForeArm
      direction 1.000000 0.000000 0.000000
      length 7.907442
      axis 0.0 0.0 -90.0 xyz
      dof ry rz rx
   end
   begin
      id 12
      name LeftHand
      direction 0.000000 0.000000 0.000000
      length 0.000000
      axis 0.0 0.0 -90.0 xyz
      dof rx ry rz
   end
   begin
      id 13
      name LeftHand_dum1
      direction 0.000000 0.000000 0.000000
      length 0.000000
      axis 0.0 0.0 -90.0 xyz
   end
   begin
      id 14
      name LeftHand_dum2
      direction 1.000000 0.000000 0.000000
      length 3.937000
      axis 0.0 0.0 -90.0 xyz
   end
   begin
      id 15
      name LeftHandThumb1
      direction 0.000000 0.000000 1.000000
      length 3.937000
      axis 0.0 0.0 -90.0 xyz
      dof rx rz ry
   end
   begin
      id 16
      name RightShoulder
      direction -1.000000 0.000000 0.000000
      length 7.028855
      axis 0.0 0.0 90.0 xyz
      dof rx ry rz
   end
   begin
      id 17
      name RightArm
      direction -1.000000 0.000000 0.000000
      length 10.797705
      axis 0.0 0.0 90.0 xyz
      dof rx ry rz
   end
   begin
      id 18
      name RightForeArm
      direction -1.000000 0.000000 0.000000
      length 7.907442
      axis 0.0 0.0 90.0 xyz
      dof ry rz rx
   end
   begin
      id 19
      name RightHand
      direction 0.000000 0.000000 0.000000
      length 0.000000
      axis 0.0 0.0 90.0 xyz
      dof rx ry rz
   end
   begin
      id 20
      name RightHand_dum1
      direction 0.000000 0.000000 0.000000
      length 0.000000
      axis 0.0 0.0 90.0 xyz
   end
   begin
      id 21
      name RightHand_dum2
      direction -1.000000 0.000000 0.000000
      length 3.937000
      axis 0.0 0.0 90.0 xyz
   end
   begin
      id 22
      name RightHandThumb1
      direction 0.000000 0.000000 1.000000
      length 3.937000
      axis 0.0 0.0 90.0 xyz
      dof rx rz ry
   end
   begin
      id 23
      name LeftUpLeg
      direction 0.000000 -1.000000 0.000000
      length 16.899758
      axis 0.0 0.0 0.0 xyz
      dof rx ry rz
   end
   begin
      id 24
      name LeftLeg
      direction 0.000000 -1.000000 0.000000
      length 17.389183
      axis 0.0 0.0 0.0 xyz
      dof rx ry rz
   end
   begin
      id 25
      name LeftFoot
      direction 0.000000 -0.258819 0.965926
      length 4.924528
      axis 15.0 0.0 0.0 xyz
      dof rx ry rz
   end
   begin
      id 26
      name LeftToeBase
      direction 0.000000 0.000000 1.000000
      length 2.952750
      axis 0.0 0.0 0.0 xyz
      dof rx ry rz
   end
   begin
      id 27
      name RightUpLeg
      direction 0.000000 -1.000000 0.000000
      length 16.899758
      axis 0.0 0.0 0.0 xyz
      dof rx ry rz
   end
   begin
      id 28
      name RightLeg
      direction 0.000000 -1.000000 0.000000
      length 17.389183
      axis 0.0 0.0 0.0 xyz
      dof rx ry rz
   end
   begin
      id 29
      name RightFoot
      direction 0.000000 -0.258819 0.965926
      length 4.924528
      axis 15.0 0.0 0.0 xyz
      dof rx ry rz
   end
   begin
      id 30
      name RightToeBase
      direction 0.000000 0.000000 1.000000
      length 2.952750
      axis 0.0 0.0 0.0 xyz
      dof rx ry rz
   end
:hierarchy
   begin
      root Spine_dum LeftUpLeg_dum RightUpLeg_dum
      Spine_dum Spine
      LeftUpLeg_dum LeftUpLeg
      RightUpLeg_dum RightUpLeg
      Spine Spine_dum1 Spine_dum2 Spine_dum3
      Spine_dum1 Head
      Spine_dum2 LeftShoulder
      Spine_dum3 RightShoulder
      LeftShoulder LeftArm
      LeftArm LeftForeArm
      LeftForeArm LeftHand
      LeftHand LeftHand_dum1 LeftHand_dum2
      LeftHand_dum1 LeftHandThumb1
      RightShoulder RightArm
      RightArm RightForeArm
      RightForeArm RightHand
      RightHand RightHand_dum1 RightHand_dum2
      RightHand_dum1 RightHandThumb1
      LeftUpLeg LeftLeg
      LeftLeg LeftFoot
      LeftFoot LeftToeBase
      RightUpLeg RightLeg
      RightLeg RightFoot
      RightFoot RightToeBase
   end

# File created by Blade
# Date/Time:  Wed Jan 21 17:05:57 2015
# Frame Rate: 120.000 fps
#------------------------------------------------------
:FULLY-SPECIFIED
:DEGREES
1
root 19.379125 35.622485 -22.757560 -173.113034 -1.008433 -179.308986
Spine -19.200950 -0.361847 -0.564953
Head 9.237361 -1.067708 1.669304
LeftShoulder -9.695801 -30.450079 16.181011
LeftArm 4.483120 4.136462 -10.768590
LeftForeArm 3.235868 -0.000000 -3.171994
LeftHand -8.899050 -0.000000 -5.292434
LeftHandThumb1 -26.253704 0.000000 33.147579
RightShoulder -10.471800 -6.870820 -6.605172
RightArm 12.472824 35.341153 14.463066
RightForeArm -31.704727 -0.000000 4.398797
RightHand -6.728448 0.000000 7.253242
RightHandThumb1 -24.326973 -0.000000 -32.862282
LeftUpLeg 0.898617 10.269301 2.617753
LeftLeg -4.495919 -0.000000 0.000000
LeftFoot -19.591093 24.821364 -15.621218
LeftToeBase 23.881233 -0.000000 -0.000000
RightUpLeg -0.159893 -7.996155 -1.203247
RightLeg -2.053070 -0.000000 0.000000
RightFoot -21.153397 -23.356953 18.638924
RightToeBase 22.996341 -0.000000 -0.000000
2
root 19.381870 35.622328 -22.759348 -173.109290 -1.027739 -179.305543
Spine -19.203114 -0.363499 -0.570522
Head 9.233816 -1.087120 1.707052
LeftShoulder -9.672216 -30.496283 16.190288
LeftArm 4.446688 4.143502 -10.762111
LeftForeArm 3.228356 -0.000000 -3.146225
LeftHand -8.923412 0.000000 -5.287901
LeftHandThumb1 -26.253704 0.000000 33.147579
RightShoulder -10.466718 -6.848773 -6.611488
RightArm 12.413112 35.334806 14.451919
RightForeArm -31.712709 -0.000000 4.413182
RightHand -6.733020 0.000000 7.268847
RightHandThumb1 -24.326973 -0.000000 -32.862282
LeftUpLeg 0.897410 10.259613 2.627451
LeftLeg -4.503272 -0.000000 0.000000
LeftFoot -19.590143 24.822001 -15.604788
LeftToeBase 23.901098 -0.000000 -0.000000
RightUpLeg -0.151027 -8.018097 -1.193026
RightLeg -2.071877 -0.000000 0.000000
RightFoot -21.141338 -23.375301 18.639423
RightToeBase 23.246919 -0.000000 -0.000000
3
root 19.384319 35.622387 -22.760383 -173.106622 -1.042719 -179.302801
Spine -19.207072 -0.359891 -0.576887
Head 9.248725 -1.113217 1.734704
LeftShoulder -9.646013 -30.526796 16.185312
LeftArm 4.445136 4.101422 -10.749008
LeftForeArm 3.258936 0.000000 -3.170042
LeftHand -8.913341 -0.000000 -5.272302
LeftHandThumb1 -26.253704 0.000000 33.147579
RightShoulder -10.460831 -6.840892 -6.623269
RightArm 12.364906 35.359375 14.461549
RightForeArm -31.737369 -0.000000 4.420475
RightHand -6.745090 -0.000000 7.275546
RightHandThumb1 -24.326973 -0.000000 -32.862282
LeftUpLeg 0.891774 10.260257 2.633746
LeftLeg -4.501221 -0.000000 0.000000
LeftFoot -19.581668 24.817579 -15.601547
LeftToeBase 23.889605 -0.000000 -0.000000
RightUpLeg -0.145631 -8.010476 -1.186391
RightLeg -2.075071 -0.000000 0.000000
RightFoot -21.145455 -23.367579 18.653045
RightToeBase 22.892831 -0.000000 -0.000000
4
root 19.386631 35.622022 -22.761347 -173.111399 -1.061883 -179.304878
Spine -19.194124 -0.370986 -0.588164
Head 9.238832 -1.130283 1.770376
LeftShoulder -9.643822 -30.537534 16.211487
LeftArm 4.428723 4.079720 -10.758831
LeftForeArm 3.222689 -0.000000 -3.151776
LeftHand -8.927814 -0.000000 -5.256937
LeftHandThumb1 -26.253704 0.000000 33.147579
RightShoulder -10.451057 -6.820794 -6.625667
RightArm 12.316797 35.353679 14.456583
RightForeArm -31.707936 -0.000000 4.422544
RightHand -6.760538 -0.000000 7.253867
RightHandThumb1 -24.326973 -0.000000 -32.862282
LeftUpLeg 0.899324 10.243063 2.636896
LeftLeg -4.512892 -0.000000 0.000000
LeftFoot -19.589215 24.823217 -15.612166
LeftToeBase 23.935374 -0.000000 -0.000000
RightUpLeg -0.137688 -8.032065 -1.184419
RightLeg -2.071996 -0.000000 0.000000
RightFoot -21.157179 -23.362932 18.651970
RightToeBase 22.953714 -0.000000 -0.000000
5
root 19.388301 35.622018 -22.762527 -173.112992 -1.078350 -179.308513
Spine -19.186747 -0.374408 -0.600759
Head 9.231910 -1.134244 1.807238
LeftShoulder -9.623455 -30.556927 16.206794
LeftArm 4.419395 4.046630 -10.738229
LeftForeArm 3.225244 0.000000 -3.166221
LeftHand -8.931572 0.000000 -5.245031
LeftHandThumb1 -26.253704 0.000000 33.147579
RightShoulder -10.452814 -6.792168 -6.630196
RightArm 12.285100 35.357355 14.460062
RightForeArm -31.703423 0.000000 4.412172
RightHand -6.759878 -0.000000 7.237970
RightHandThumb1 -24.326973 -0.000000 -32.862282
LeftUpLeg 0.904620 10.245539 2.636602
LeftLeg -4.522897 -0.000000 0.000000
LeftFoot -19.570255 24.809771 -15.605937
LeftToeBase 23.912815 -0.000000 -0.000000
RightUpLeg -0.128809 -8.050961 -1.185973
RightLeg -2.085325 -0.000000 0.000000
RightFoot -21.181114 -23.432206 18.516030
RightToeBase 23.282284 -0.000000 -0.000000
